<?xml version="1.0" standalone="no"?>
<!DOCTYPE svg PUBLIC "-//W3C//DTD SVG 20010904//EN"
 "http://www.w3.org/TR/2001/REC-SVG-20010904/DTD/svg10.dtd">
<svg version="1.0" xmlns="http://www.w3.org/2000/svg"
 width="1280.000000pt" height="724.000000pt" viewBox="0 0 1280.000000 724.000000"
 preserveAspectRatio="xMidYMid meet">
<metadata>
Created by potrace 1.15, written by Peter Selinger 2001-2017
</metadata>
<g transform="translate(0.000000,724.000000) scale(0.100000,-0.100000)"
fill="#000000" stroke="none">
<path d="M11845 7221 c-200 -58 -1342 -575 -2050 -927 -1324 -658 -2393 -1313
-3140 -1924 -44 -36 -87 -71 -96 -77 -13 -10 -27 -9 -73 7 -117 42 -277 69
-526 92 -192 17 -1190 17 -1505 0 -949 -52 -1813 -126 -2855 -243 -195 -21
-401 -45 -458 -51 -57 -6 -109 -16 -116 -22 -8 -6 -57 -155 -109 -331 -53
-176 -141 -468 -196 -650 -220 -730 -389 -1293 -523 -1735 -77 -256 -147 -488
-155 -516 l-15 -51 40 -57 c69 -98 122 -249 122 -348 l0 -57 -56 -27 c-94 -44
-162 -124 -120 -140 19 -7 587 12 1061 36 730 38 1805 107 2940 190 1685 124
2017 150 2076 165 78 19 156 56 212 98 26 21 49 37 51 37 3 0 15 -24 29 -53
34 -74 110 -172 156 -203 96 -63 230 -89 323 -63 46 12 194 82 476 223 l213
107 78 -163 c81 -169 166 -371 197 -470 10 -32 20 -58 23 -58 6 0 96 247 107
293 l6 27 59 -55 c52 -47 232 -175 248 -175 3 0 -79 172 -182 381 -103 210
-184 385 -180 389 4 4 409 200 898 435 1870 898 2834 1391 3550 1815 244 144
255 153 255 192 0 56 -96 128 -172 128 -23 0 -33 52 -32 160 3 197 112 462
336 817 l58 93 -33 67 c-40 80 -96 225 -131 338 -56 182 -95 361 -196 900
-107 573 -187 851 -321 1120 -65 129 -177 299 -200 302 -8 1 -41 -6 -74 -16z
m63 -56 c38 -32 99 -151 147 -283 96 -271 176 -584 365 -1427 137 -610 183
-795 224 -896 22 -54 22 -60 7 -68 -9 -5 -113 -49 -231 -99 -1493 -626 -2897
-1280 -3769 -1756 -1004 -548 -1656 -1014 -1982 -1418 -43 -54 -81 -93 -84
-88 -11 18 -25 170 -36 385 -14 264 -6 2017 11 2373 11 253 13 261 81 356 312
431 1397 1116 3134 1981 292 145 647 318 790 385 538 252 1267 578 1297 579 9
1 30 -10 46 -24z m731 -2806 c-192 -338 -274 -534 -300 -720 -15 -110 -1 -201
47 -295 32 -63 33 -69 17 -78 -27 -16 -811 -403 -2798 -1382 l-1789 -881 -40
56 c-73 103 -155 199 -227 264 -113 104 -87 105 -315 -14 l-199 -103 67 -13
c93 -17 135 -41 209 -122 60 -65 167 -226 157 -236 -11 -11 -501 -245 -543
-259 -93 -32 -217 -11 -278 47 -40 38 -67 114 -67 192 0 325 466 766 1400
1327 724 435 1718 931 3395 1695 616 280 1026 470 1175 542 68 33 125 59 127
57 2 -2 -15 -36 -38 -77z m-6664 1 c271 -38 393 -94 450 -204 l30 -60 -2 -785
c-3 -1084 -24 -1825 -59 -2079 -7 -57 -16 -107 -19 -111 -2 -5 -35 0 -72 11
-87 24 -272 54 -438 70 -173 17 -1191 17 -1485 0 -1180 -69 -2136 -153 -3799
-332 -256 -27 -466 -48 -468 -47 -1 2 28 109 66 238 38 129 106 360 151 514
45 154 126 431 180 615 125 426 321 1095 412 1405 38 132 84 287 102 345 l32
105 329 37 c1470 166 2392 246 3190 278 149 6 297 12 330 14 140 8 995 -3
1070 -14z m-270 -3230 c555 -37 790 -162 662 -351 -30 -45 -84 -73 -198 -104
-87 -23 -227 -35 -1839 -150 -3520 -253 -4111 -295 -4124 -295 -10 0 -7 13 10
47 14 27 24 64 24 88 0 61 -32 177 -83 301 -25 60 -44 110 -43 111 2 2 85 10
187 18 101 9 410 36 686 60 277 25 729 65 1005 90 1965 174 3053 228 3713 185z"/>
</g>
</svg>
